<svg width="18" height="18" viewBox="0 0 18 18" fill="none" xmlns="http://www.w3.org/2000/svg">
<path d="M9.00883 6.86602C8.48324 6.86602 7.99105 7.06993 7.6184 7.44258C7.2475 7.81524 7.04184 8.30743 7.04184 8.83301C7.04184 9.3586 7.2475 9.85079 7.6184 10.2234C7.99105 10.5943 8.48324 10.8 9.00883 10.8C9.53441 10.8 10.0266 10.5943 10.3993 10.2234C10.7702 9.85079 10.9758 9.3586 10.9758 8.83301C10.9758 8.30743 10.7702 7.81524 10.3993 7.44258C10.2172 7.25917 10.0006 7.11375 9.7619 7.01477C9.52321 6.91579 9.26723 6.86523 9.00883 6.86602ZM16.2563 11.0057L15.1067 10.0231C15.1612 9.68907 15.1893 9.34805 15.1893 9.0088C15.1893 8.66954 15.1612 8.32676 15.1067 7.99454L16.2563 7.01192C16.3431 6.93758 16.4053 6.83856 16.4345 6.72803C16.4637 6.6175 16.4586 6.50071 16.4198 6.39317L16.4039 6.34747C16.0876 5.46274 15.6135 4.64266 15.0047 3.92696L14.9731 3.89005C14.8992 3.80312 14.8006 3.74064 14.6905 3.71083C14.5804 3.68102 14.4638 3.68528 14.3561 3.72305L12.9288 4.23106C12.4014 3.79864 11.8143 3.45762 11.178 3.22032L10.902 1.72794C10.8812 1.61551 10.8266 1.51208 10.7456 1.43139C10.6646 1.3507 10.561 1.29656 10.4485 1.27618L10.401 1.26739C9.48695 1.10215 8.52367 1.10215 7.60961 1.26739L7.56215 1.27618C7.44964 1.29656 7.346 1.3507 7.265 1.43139C7.18399 1.51208 7.12945 1.61551 7.10863 1.72794L6.8309 3.22735C6.2006 3.46655 5.61343 3.80674 5.09242 4.23458L3.65453 3.72305C3.54689 3.68498 3.43022 3.68057 3.32001 3.7104C3.2098 3.74022 3.11128 3.80288 3.03754 3.89005L3.0059 3.92696C2.39821 4.64343 1.92427 5.4633 1.60668 6.34747L1.59086 6.39317C1.51176 6.6129 1.5768 6.85899 1.75434 7.01192L2.91801 8.00508C2.86352 8.33555 2.83715 8.67305 2.83715 9.00704C2.83715 9.34454 2.86352 9.68204 2.91801 10.009L1.75785 11.0022C1.67101 11.0765 1.60885 11.1755 1.57965 11.286C1.55045 11.3966 1.55559 11.5134 1.59437 11.6209L1.6102 11.6666C1.92836 12.5508 2.3977 13.3682 3.00941 14.0871L3.04105 14.124C3.11498 14.2109 3.2135 14.2734 3.32364 14.3032C3.43379 14.3331 3.55038 14.3288 3.65805 14.291L5.09594 13.7795C5.61977 14.2102 6.20336 14.5512 6.83441 14.7867L7.11215 16.2861C7.13297 16.3986 7.18751 16.502 7.26851 16.5827C7.34952 16.6634 7.45316 16.7175 7.56566 16.7379L7.61313 16.7467C8.53618 16.9128 9.48148 16.9128 10.4045 16.7467L10.452 16.7379C10.5645 16.7175 10.6681 16.6634 10.7491 16.5827C10.8301 16.502 10.8847 16.3986 10.9055 16.2861L11.1815 14.7938C11.8178 14.5547 12.4049 14.2154 12.9323 13.783L14.3596 14.291C14.4672 14.3291 14.5839 14.3335 14.6941 14.3037C14.8043 14.2739 14.9029 14.2112 14.9766 14.124L15.0082 14.0871C15.62 13.3647 16.0893 12.5508 16.4075 11.6666L16.4233 11.6209C16.4989 11.4029 16.4338 11.1586 16.2563 11.0057ZM9.00883 11.9232C7.30199 11.9232 5.91859 10.5399 5.91859 8.83301C5.91859 7.12618 7.30199 5.74278 9.00883 5.74278C10.7157 5.74278 12.0991 7.12618 12.0991 8.83301C12.0991 10.5399 10.7157 11.9232 9.00883 11.9232Z" fill="#353547"/>
</svg>
