<svg width="15" height="15" viewBox="0 0 15 15" fill="none" xmlns="http://www.w3.org/2000/svg">
<g clip-path="url(#clip0_1026_11050)">
<path d="M13.7109 3.28125H12.1875V12.1875C12.1875 12.4361 12.2863 12.6746 12.4621 12.8504C12.6379 13.0262 12.8764 13.125 13.125 13.125C13.3736 13.125 13.6121 13.0262 13.7879 12.8504C13.9637 12.6746 14.0625 12.4361 14.0625 12.1875V3.63281C14.0625 3.53957 14.0255 3.45015 13.9595 3.38422C13.8936 3.31829 13.8042 3.28125 13.7109 3.28125Z" fill="#353547"/>
<path d="M12.6313 13.9966C12.2348 13.8878 11.8849 13.6519 11.6354 13.3251C11.3859 12.9983 11.2505 12.5987 11.25 12.1875V1.28906C11.25 1.19582 11.213 1.1064 11.147 1.04047C11.0811 0.974539 10.9917 0.9375 10.8984 0.9375H1.28906C1.19582 0.9375 1.1064 0.974539 1.04047 1.04047C0.974539 1.1064 0.9375 1.19582 0.9375 1.28906V12.4219C0.9375 12.857 1.11035 13.2743 1.41803 13.582C1.7257 13.8897 2.143 14.0625 2.57812 14.0625H12.6226C12.6309 14.0628 12.639 14.06 12.6454 14.0547C12.6517 14.0493 12.6558 14.0418 12.6569 14.0335C12.658 14.0253 12.656 14.0169 12.6513 14.0101C12.6466 14.0033 12.6394 13.9985 12.6313 13.9966ZM2.8125 6.09375V3.28125H5.625V6.09375H2.8125ZM9.375 11.7188H2.8125V10.7813H9.375V11.7188ZM9.375 9.84375H2.8125V8.90625H9.375V9.84375ZM9.375 7.96875H2.8125V7.03125H9.375V7.96875ZM9.375 6.09375H6.5625V5.15625H9.375V6.09375ZM9.375 4.21875H6.5625V3.28125H9.375V4.21875Z" fill="#353547"/>
</g>
<defs>
</defs>
</svg>
