<svg width="18" height="18" viewBox="0 0 18 18" fill="none" xmlns="http://www.w3.org/2000/svg">
<path d="M13.5 8.25C14.6175 8.25 15.6525 8.6025 16.5 9.195V6C16.5 5.1675 15.8325 4.5 15 4.5H12V3C12 2.1675 11.3325 1.5 10.5 1.5H7.5C6.6675 1.5 6 2.1675 6 3V4.5H3C2.1675 4.5 1.5075 5.1675 1.5075 6L1.5 14.25C1.5 15.0825 2.1675 15.75 3 15.75H8.76C8.37948 14.9501 8.20768 14.067 8.26061 13.1828C8.31353 12.2986 8.58946 11.4422 9.06268 10.6935C9.5359 9.9447 10.191 9.32794 10.9669 8.90068C11.7428 8.47343 12.6142 8.24958 13.5 8.25ZM7.5 3H10.5V4.5H7.5V3Z" fill="#353547"/>
<path d="M13.5 9.75C11.43 9.75 9.75 11.43 9.75 13.5C9.75 15.57 11.43 17.25 13.5 17.25C15.57 17.25 17.25 15.57 17.25 13.5C17.25 11.43 15.57 9.75 13.5 9.75ZM14.7375 15.2625L13.125 13.65V11.25H13.875V13.3425L15.2625 14.73L14.7375 15.2625Z" fill="#353547"/>
</svg>
