<svg width="16" height="15" viewBox="0 0 16 15" fill="none" xmlns="http://www.w3.org/2000/svg">
<path d="M0.518208 5.9038C0.518157 5.90375 0.518106 5.9037 0.518055 5.90365C0.508648 5.89463 0.504999 5.88679 0.50304 5.87849C0.500572 5.86803 0.500474 5.85373 0.504935 5.83875C0.509414 5.82372 0.516155 5.81561 0.518984 5.81299C0.519083 5.8129 0.519171 5.81281 0.51926 5.81271C0.519917 5.81203 0.520588 5.81134 0.525606 5.81063L0.526339 5.81053L5.42434 5.11453L5.68275 5.07781L5.80036 4.8448L7.98429 0.517936C7.98833 0.509945 7.99173 0.505812 7.9934 0.50401C7.99511 0.502155 7.99622 0.501433 7.99666 0.501168C7.99757 0.500623 7.99912 0.5 8.0015 0.5C8.00387 0.5 8.00543 0.500623 8.00633 0.501168C8.00677 0.501433 8.00788 0.502155 8.00959 0.50401C8.01126 0.505812 8.01467 0.509944 8.0187 0.517935L10.2026 4.8448L10.3202 5.07781L10.5787 5.11453L15.4767 5.81053L15.4774 5.81063C15.4824 5.81134 15.4831 5.81203 15.4837 5.81269C15.4838 5.81278 15.4839 5.81286 15.484 5.81295C15.4867 5.81553 15.4934 5.82356 15.4978 5.83846C15.5023 5.8533 15.5021 5.86747 15.4997 5.87784C15.4977 5.88608 15.4941 5.89403 15.4843 5.90327L15.4841 5.90352L11.9621 9.25952L11.7682 9.44421L11.8145 9.70792L12.6445 14.4379L12.6446 14.4382C12.6479 14.4572 12.6451 14.4686 12.6424 14.4755C12.6391 14.484 12.6335 14.4912 12.6273 14.4961C12.6249 14.498 12.623 14.4991 12.6217 14.4998C12.621 14.4995 12.6202 14.4991 12.6193 14.4987C12.6193 14.4986 12.6192 14.4986 12.6192 14.4986L8.22849 12.2428L7.99994 12.1253L7.77142 12.2428L3.38242 14.4988L3.38252 14.4992C3.38208 14.4995 3.38168 14.4996 3.38132 14.4998C3.37997 14.4991 3.37805 14.498 3.37569 14.4961C3.36952 14.4912 3.36394 14.484 3.3606 14.4755C3.35787 14.4686 3.35508 14.4572 3.35842 14.4382L3.35847 14.4379L4.18847 9.70792L4.23475 9.44417L4.04086 9.25947L0.518208 5.9038Z" stroke="#A6826C"/>
</svg>
