<svg width="23" height="22" viewBox="0 0 23 22" fill="none" xmlns="http://www.w3.org/2000/svg">
<path d="M20.897 9.20487H20.125V9.16683H11.5V12.8335H16.916C16.1259 14.968 14.0027 16.5002 11.5 16.5002C8.32458 16.5002 5.75002 14.0375 5.75002 11.0002C5.75002 7.96279 8.32458 5.50016 11.5 5.50016C12.9658 5.50016 14.2993 6.02908 15.3147 6.89304L18.0253 4.30025C16.3137 2.77445 14.0243 1.8335 11.5 1.8335C6.20762 1.8335 1.91669 5.93787 1.91669 11.0002C1.91669 16.0625 6.20762 20.1668 11.5 20.1668C16.7924 20.1668 21.0834 16.0625 21.0834 11.0002C21.0834 10.3855 21.0172 9.78558 20.897 9.20487Z" fill="#FFC107"/>
<path d="M3.02161 6.73354L6.17021 8.94225C7.02217 6.92466 9.08546 5.50016 11.5 5.50016C12.9658 5.50016 14.2993 6.02908 15.3146 6.89304L18.0253 4.30025C16.3137 2.77445 14.0242 1.8335 11.5 1.8335C7.81902 1.8335 4.62681 3.82129 3.02161 6.73354Z" fill="#FF3D00"/>
<path d="M11.5 20.1665C13.9754 20.1665 16.2246 19.2604 17.9252 17.7868L14.9591 15.3861C13.9646 16.1095 12.7494 16.5008 11.5 16.4998C9.00738 16.4998 6.8909 14.9795 6.09357 12.8579L2.96844 15.161C4.55449 18.1297 7.77545 20.1665 11.5 20.1665Z" fill="#4CAF50"/>
<path d="M20.8969 9.20455H20.125V9.1665H11.5V12.8332H16.916C16.5381 13.849 15.8572 14.7367 14.9577 15.3865L14.9591 15.3856L17.9251 17.7864C17.7153 17.9688 21.0833 15.5832 21.0833 10.9998C21.0833 10.3852 21.0172 9.78525 20.8969 9.20455Z" fill="#1976D2"/>
</svg>
