<svg width="16" height="16" viewBox="0 0 16 16" fill="none" xmlns="http://www.w3.org/2000/svg">
<path d="M14.3334 5.65867V11.25C14.3334 12.2167 13.5501 13 12.5834 13H3.41675C2.95262 13 2.5075 12.8156 2.17931 12.4874C1.85112 12.1592 1.66675 11.7141 1.66675 11.25V5.65867L7.79941 9.032C7.92441 9.10067 8.07608 9.10067 8.20075 9.032L14.3334 5.65833V5.65867ZM12.5834 3C13.0402 3.00004 13.4789 3.17872 13.8058 3.49786C14.1327 3.817 14.3218 4.2513 14.3327 4.708L8.00008 8.19133L1.66741 4.70767L1.66808 4.67767C1.68675 4.22642 1.87915 3.79986 2.20505 3.48719C2.53095 3.17452 2.96511 2.99996 3.41675 3H12.5834Z" fill="#353547"/>
</svg>
