<svg width="17" height="17" viewBox="0 0 17 17" fill="none" xmlns="http://www.w3.org/2000/svg">
<path d="M8.50004 1.0625C10.4727 1.0625 12.3646 1.84615 13.7595 3.24105C15.1544 4.63595 15.9381 6.52784 15.9381 8.50053C15.9381 10.4732 15.1544 12.3651 13.7595 13.76C12.3646 15.1549 10.4727 15.9386 8.50004 15.9386C6.52735 15.9386 4.63546 15.1549 3.24056 13.76C1.84566 12.3651 1.06201 10.4732 1.06201 8.50053C1.06201 6.52784 1.84566 4.63595 3.24056 3.24105C4.63546 1.84615 6.52735 1.0625 8.50004 1.0625ZM9.61567 5.62912C10.1682 5.62912 10.6165 5.24556 10.6165 4.67712C10.6165 4.10869 10.1671 3.72513 9.61567 3.72513C9.06317 3.72513 8.61692 4.10869 8.61692 4.67712C8.61692 5.24556 9.06317 5.62912 9.61567 5.62912ZM9.81011 11.6078C9.81011 11.4941 9.84942 11.1987 9.8271 11.0309L8.95373 12.036C8.77311 12.2262 8.54679 12.3579 8.44054 12.3229C8.39234 12.3051 8.35205 12.2708 8.32693 12.226C8.3018 12.1812 8.29349 12.1289 8.30348 12.0785L9.75911 7.48C9.87811 6.89669 9.55086 6.36438 8.85704 6.29638C8.12498 6.29638 7.04761 7.03906 6.39204 7.9815C6.39204 8.09413 6.37079 8.37462 6.39311 8.5425L7.26542 7.53631C7.44604 7.34825 7.65642 7.21544 7.76267 7.25156C7.81502 7.27035 7.85791 7.30891 7.88214 7.35897C7.90638 7.40903 7.91002 7.4666 7.89229 7.51931L6.44942 12.0955C6.28261 12.631 6.59817 13.1559 7.36317 13.2749C8.48942 13.2749 9.15454 12.5503 9.81117 11.6078H9.81011Z" fill="#353547"/>
</svg>
