<svg width="18" height="18" viewBox="0 0 18 18" fill="none" xmlns="http://www.w3.org/2000/svg">
<path d="M9.00002 1.80078V5.85078C9.00002 6.20882 9.14226 6.5522 9.39543 6.80538C9.6486 7.05855 9.99198 7.20078 10.35 7.20078H14.4V14.8508C14.4 15.2088 14.2578 15.5522 14.0046 15.8054C13.7514 16.0585 13.4081 16.2008 13.05 16.2008H8.76872C9.44091 15.3868 9.83526 14.3792 9.89418 13.3252C9.95311 12.2712 9.67352 11.2259 9.09625 10.3421C8.51898 9.45824 7.67427 8.7821 6.68546 8.41239C5.69666 8.04268 4.61555 7.99877 3.60002 8.28708V3.15078C3.60002 2.79274 3.74226 2.44936 3.99543 2.19619C4.2486 1.94301 4.59198 1.80078 4.95002 1.80078H9.00002ZM9.90002 2.02578V5.85078C9.90002 5.97013 9.94743 6.08459 10.0318 6.16898C10.1162 6.25337 10.2307 6.30078 10.35 6.30078H14.175L9.90002 2.02578ZM9.00002 13.0508C9.00002 14.1249 8.57333 15.155 7.81381 15.9146C7.05428 16.6741 6.02415 17.1008 4.95002 17.1008C3.8759 17.1008 2.84576 16.6741 2.08624 15.9146C1.32672 15.155 0.900024 14.1249 0.900024 13.0508C0.900024 11.9767 1.32672 10.9465 2.08624 10.187C2.84576 9.42748 3.8759 9.00078 4.95002 9.00078C6.02415 9.00078 7.05428 9.42748 7.81381 10.187C8.57333 10.9465 9.00002 11.9767 9.00002 13.0508ZM5.40002 11.2508C5.40002 11.1314 5.35261 11.017 5.26822 10.9326C5.18383 10.8482 5.06937 10.8008 4.95002 10.8008C4.83068 10.8008 4.71622 10.8482 4.63183 10.9326C4.54744 11.017 4.50002 11.1314 4.50002 11.2508V12.6008H3.15002C3.03068 12.6008 2.91622 12.6482 2.83183 12.7326C2.74743 12.817 2.70002 12.9314 2.70002 13.0508C2.70002 13.1701 2.74743 13.2846 2.83183 13.369C2.91622 13.4534 3.03068 13.5008 3.15002 13.5008H4.50002V14.8508C4.50002 14.9701 4.54744 15.0846 4.63183 15.169C4.71622 15.2534 4.83068 15.3008 4.95002 15.3008C5.06937 15.3008 5.18383 15.2534 5.26822 15.169C5.35261 15.0846 5.40002 14.9701 5.40002 14.8508V13.5008H6.75002C6.86937 13.5008 6.98383 13.4534 7.06822 13.369C7.15261 13.2846 7.20002 13.1701 7.20002 13.0508C7.20002 12.9314 7.15261 12.817 7.06822 12.7326C6.98383 12.6482 6.86937 12.6008 6.75002 12.6008H5.40002V11.2508Z" fill="#353547"/>
</svg>
