<svg width="37" height="37" viewBox="0 0 37 37" fill="none" xmlns="http://www.w3.org/2000/svg">
<circle cx="18.5" cy="18.5" r="18.5" fill="#E7E1DE" fill-opacity="0.9"/>
<path d="M25.4933 25.8569H24.8336V10.9283C24.8336 10.4943 24.4791 10.1426 24.0419 10.1426H12.9586C12.5213 10.1426 12.1669 10.4943 12.1669 10.9283V25.8569H11.5072C11.2886 25.8569 11.1113 26.0328 11.1113 26.2497V26.9045H25.8891V26.2497C25.8891 26.0328 25.7119 25.8569 25.4933 25.8569ZM15.3336 12.6307C15.3336 12.4137 15.5108 12.2378 15.7294 12.2378H17.0488C17.2674 12.2378 17.4447 12.4137 17.4447 12.6307V13.9402C17.4447 14.1572 17.2674 14.3331 17.0488 14.3331H15.7294C15.5108 14.3331 15.3336 14.1572 15.3336 13.9402V12.6307ZM15.3336 15.7735C15.3336 15.5566 15.5108 15.3807 15.7294 15.3807H17.0488C17.2674 15.3807 17.4447 15.5566 17.4447 15.7735V17.0831C17.4447 17.3 17.2674 17.4759 17.0488 17.4759H15.7294C15.5108 17.4759 15.3336 17.3 15.3336 17.0831V15.7735ZM17.0488 20.6188H15.7294C15.5108 20.6188 15.3336 20.4429 15.3336 20.2259V18.9164C15.3336 18.6994 15.5108 18.5235 15.7294 18.5235H17.0488C17.2674 18.5235 17.4447 18.6994 17.4447 18.9164V20.2259C17.4447 20.4429 17.2674 20.6188 17.0488 20.6188ZM19.5558 25.8569H17.4447V23.1069C17.4447 22.8899 17.6219 22.714 17.8405 22.714H19.1599C19.3785 22.714 19.5558 22.8899 19.5558 23.1069V25.8569ZM21.6669 20.2259C21.6669 20.4429 21.4896 20.6188 21.2711 20.6188H19.9516C19.733 20.6188 19.5558 20.4429 19.5558 20.2259V18.9164C19.5558 18.6994 19.733 18.5235 19.9516 18.5235H21.2711C21.4896 18.5235 21.6669 18.6994 21.6669 18.9164V20.2259ZM21.6669 17.0831C21.6669 17.3 21.4896 17.4759 21.2711 17.4759H19.9516C19.733 17.4759 19.5558 17.3 19.5558 17.0831V15.7735C19.5558 15.5566 19.733 15.3807 19.9516 15.3807H21.2711C21.4896 15.3807 21.6669 15.5566 21.6669 15.7735V17.0831ZM21.6669 13.9402C21.6669 14.1572 21.4896 14.3331 21.2711 14.3331H19.9516C19.733 14.3331 19.5558 14.1572 19.5558 13.9402V12.6307C19.5558 12.4137 19.733 12.2378 19.9516 12.2378H21.2711C21.4896 12.2378 21.6669 12.4137 21.6669 12.6307V13.9402Z" fill="#A6826C"/>
</svg>
