<svg width="17" height="17" viewBox="0 0 17 17" fill="none" xmlns="http://www.w3.org/2000/svg">
<path d="M8.73977 2.37066C9.22427 1.91652 10.0178 2.26016 10.0178 2.92438V14.0776C10.0178 14.7418 9.22488 15.0855 8.73977 14.6313L5.7423 11.8227C5.54548 11.6382 5.28589 11.5356 5.01616 11.5355H3.18745C2.66412 11.5355 2.16222 11.3276 1.79217 10.9575C1.42212 10.5875 1.21423 10.0856 1.21423 9.56227V7.44213C1.21423 6.9188 1.42212 6.4169 1.79217 6.04685C2.16222 5.67681 2.66412 5.46891 3.18745 5.46891H5.01555C5.28573 5.46891 5.54559 5.3657 5.7423 5.18174L8.73977 2.37066ZM13.1409 3.14902C13.2316 3.06937 13.3502 3.02897 13.4707 3.03671C13.5911 3.04445 13.7036 3.0997 13.7833 3.19031C15.0762 4.65726 15.7883 6.5462 15.7857 8.50159C15.7857 10.5367 15.0292 12.3958 13.7833 13.8123C13.7445 13.8592 13.6966 13.8979 13.6425 13.926C13.5884 13.9541 13.5292 13.9711 13.4685 13.9759C13.4077 13.9807 13.3466 13.9733 13.2888 13.9541C13.231 13.9349 13.1776 13.9042 13.1318 13.864C13.086 13.8237 13.0488 13.7747 13.0223 13.7198C12.9958 13.6649 12.9807 13.6053 12.9777 13.5444C12.9747 13.4835 12.9839 13.4226 13.0049 13.3654C13.0258 13.3082 13.0581 13.2557 13.0997 13.2112C14.2463 11.9106 14.8777 10.2355 14.8749 8.50159C14.8778 6.76767 14.2464 5.09257 13.0997 3.79199C13.0601 3.74707 13.0298 3.6948 13.0105 3.63817C12.9912 3.58154 12.9832 3.52166 12.9871 3.46195C12.9909 3.40223 13.0064 3.34386 13.0329 3.29017C13.0593 3.23647 13.096 3.18851 13.1409 3.14902ZM12.3571 5.0427C12.2847 4.94609 12.1768 4.88221 12.0572 4.86513C11.9377 4.84805 11.8162 4.87917 11.7196 4.95163C11.623 5.02409 11.5591 5.13196 11.5421 5.25152C11.525 5.37107 11.5561 5.49251 11.6286 5.58913C12.2596 6.42883 12.6 7.45121 12.5982 8.50159C12.5982 9.59445 12.2375 10.6023 11.6286 11.4141C11.5927 11.4619 11.5666 11.5163 11.5517 11.5743C11.5369 11.6322 11.5336 11.6925 11.5421 11.7517C11.5505 11.8109 11.5706 11.8678 11.601 11.9193C11.6315 11.9707 11.6718 12.0157 11.7196 12.0516C11.7675 12.0874 11.8219 12.1135 11.8798 12.1284C11.9378 12.1432 11.998 12.1465 12.0572 12.1381C12.1164 12.1296 12.1734 12.1096 12.2248 12.0791C12.2763 12.0486 12.3212 12.0083 12.3571 11.9605C13.1064 10.9632 13.5107 9.74903 13.5089 8.50159C13.5108 7.25415 13.1065 6.04 12.3571 5.0427Z" fill="#353547"/>
</svg>
