<svg width="202" height="27" viewBox="0 0 202 27" fill="none" xmlns="http://www.w3.org/2000/svg">
<g clip-path="url(#clip0_406_1011)">
<path d="M13.4876 0C6.0388 0 0 6.04435 0 13.5C0 20.9557 6.0388 27 13.4876 27C20.9364 27 26.9752 20.9557 26.9752 13.5C26.9752 6.04435 20.9364 0 13.4876 0ZM13.4876 21.8433C8.88434 21.8433 5.15196 18.1075 5.15196 13.5C5.15196 8.8925 8.88434 5.15669 13.4876 5.15669C18.0909 5.15669 21.8233 8.8925 21.8233 13.5C21.8233 18.1075 18.0909 21.8433 13.4876 21.8433Z" fill="#A6826C"/>
<path style="mix-blend-mode:multiply" d="M5.15196 13.5C5.15196 6.82504 11.5784 1.42408 19.5216 1.42408C17.7065 0.514073 15.6569 0 13.4876 0C6.0388 0 0 6.04435 0 13.5C0 18.7844 3.03376 23.36 7.4536 25.5759C8.12032 25.5759 13.4876 22.2552 13.4876 21.8433C8.88434 21.8433 5.15196 18.1075 5.15196 13.5Z" fill="url(#paint0_linear_406_1011)"/>
<path style="mix-blend-mode:soft-light" d="M5.15196 13.5C5.15196 6.82504 11.5784 1.42408 19.5216 1.42408C17.7065 0.514073 15.6569 0 13.4876 0C6.0388 0 0 6.04435 0 13.5C0 18.7844 3.03376 23.36 7.4536 25.5759C8.12032 25.5759 13.4876 22.2552 13.4876 21.8433C8.88434 21.8433 5.15196 18.1075 5.15196 13.5Z" fill="url(#paint1_linear_406_1011)"/>
<path style="mix-blend-mode:multiply" d="M21.8233 13.5002C21.8233 20.1752 15.3969 25.5762 7.45361 25.5762C9.26876 26.4862 11.3184 27.0002 13.4876 27.0002C20.9364 27.0002 26.9752 20.9559 26.9752 13.5002C26.9752 8.21583 23.9415 3.64026 19.5216 1.42432C18.8549 1.42432 13.4876 4.74504 13.4876 5.15693C18.0909 5.15693 21.8233 8.89274 21.8233 13.5002Z" fill="url(#paint2_linear_406_1011)"/>
<path style="mix-blend-mode:soft-light" d="M21.8233 13.5002C21.8233 20.1752 15.3969 25.5762 7.45361 25.5762C9.26876 26.4862 11.3184 27.0002 13.4876 27.0002C20.9364 27.0002 26.9752 20.9559 26.9752 13.5002C26.9752 8.21583 23.9415 3.64026 19.5216 1.42432C18.8549 1.42432 13.4876 4.74504 13.4876 5.15693C18.0909 5.15693 21.8233 8.89274 21.8233 13.5002Z" fill="url(#paint3_linear_406_1011)"/>
<path style="mix-blend-mode:multiply" d="M19.5216 1.42432C18.8549 1.42432 13.4876 4.74504 13.4876 5.15693C8.88436 5.15693 5.15198 8.89274 5.15198 13.5002C5.15198 6.82527 11.5784 1.42432 19.5216 1.42432Z" fill="url(#paint4_linear_406_1011)"/>
<path style="mix-blend-mode:multiply" d="M7.45361 25.5759C8.12034 25.5759 13.4876 22.2552 13.4876 21.8433C18.0909 21.8433 21.8233 18.1075 21.8233 13.5C21.8233 20.175 15.3969 25.5759 7.45361 25.5759Z" fill="url(#paint5_linear_406_1011)"/>
<path d="M45.1921 16.8335C45.1921 17.8266 44.9385 18.6855 44.4313 19.4103C43.924 20.1351 43.2159 20.6907 42.3083 21.077C41.4007 21.4618 40.3591 21.655 39.1836 21.655C38.855 21.655 38.4531 21.6342 37.9762 21.5927C37.4992 21.5512 36.866 21.4347 36.0765 21.2431C35.2869 21.0515 34.4639 20.7689 33.6106 20.3953V16.5015C34.4113 16.998 35.1992 17.4099 35.9744 17.7388C36.748 18.0676 37.579 18.2321 38.4627 18.2321C39.2793 18.2321 39.8073 18.0964 40.0481 17.825C40.289 17.5536 40.4086 17.2997 40.4086 17.0634C40.4086 16.6356 40.2028 16.2748 39.7913 15.981C39.3798 15.6873 38.7801 15.3839 37.9953 15.071C37.126 14.7038 36.362 14.3063 35.7064 13.8736C35.0509 13.4426 34.5149 12.9014 34.0986 12.2532C33.6823 11.6034 33.475 10.8371 33.475 9.95104C33.475 9.06498 33.6855 8.32261 34.105 7.63133C34.5245 6.94004 35.1657 6.38925 36.027 5.97576C36.8884 5.56386 37.9427 5.35791 39.1852 5.35791C40.0704 5.35791 40.8887 5.44412 41.64 5.61495C42.3912 5.78737 43.0117 5.98054 43.4998 6.19288C43.9879 6.40681 44.3244 6.57444 44.5062 6.69737V10.4204C43.8571 9.95423 43.1345 9.53914 42.337 9.17195C41.5395 8.80475 40.6877 8.62275 39.7801 8.62275C39.1852 8.62275 38.7545 8.7377 38.4866 8.966C38.2202 9.1943 38.0862 9.47688 38.0862 9.81374C38.0862 10.1267 38.2202 10.3981 38.4866 10.6264C38.7529 10.8547 39.2299 11.134 39.9173 11.4629C41.1375 12.0361 42.1137 12.5517 42.8474 13.0099C43.5795 13.4681 44.1537 13.9966 44.57 14.5969C44.9863 15.1971 45.1937 15.9427 45.1937 16.8367L45.1921 16.8335Z" fill="#333333"/>
<path d="M63.8891 13.4998C63.8891 14.9814 63.5478 16.3448 62.8651 17.5885C62.1824 18.8337 61.1664 19.822 59.8154 20.5548C58.4644 21.2876 56.8215 21.6548 54.8836 21.6548C52.9456 21.6548 51.2628 21.2732 49.9055 20.5101C48.5481 19.7469 47.5384 18.7427 46.8781 17.4975C46.2177 16.2522 45.8876 14.9207 45.8876 13.4998C45.8876 12.0789 46.2161 10.7379 46.8717 9.49581C47.5273 8.25533 48.5369 7.25433 49.8991 6.49439C51.2612 5.73446 52.9217 5.35449 54.8836 5.35449C56.3478 5.35449 57.6541 5.57162 58.8026 6.00746C59.951 6.4433 60.8953 7.03241 61.6354 7.77798C62.3754 8.52195 62.9353 9.38885 63.3181 10.3787C63.6993 11.3669 63.8907 12.4078 63.8907 13.4998H63.8891ZM59.0147 13.4998C59.0147 12.9043 58.927 12.3599 58.7515 11.8682C58.5761 11.3749 58.3113 10.9486 57.9556 10.5846C57.6015 10.2222 57.1677 9.93964 56.6572 9.73688C56.1468 9.53413 55.5551 9.43355 54.8836 9.43355C53.6012 9.43355 52.5947 9.80713 51.8626 10.5559C51.1305 11.3046 50.7636 12.2849 50.7636 13.4998C50.7636 14.7148 51.132 15.6966 51.8674 16.4486C52.6043 17.2005 53.6091 17.5773 54.882 17.5773C55.7592 17.5773 56.5073 17.4033 57.1246 17.0568C57.7419 16.7088 58.2124 16.2283 58.5314 15.6136C58.852 14.9989 59.0115 14.2949 59.0115 13.4998H59.0147Z" fill="#333333"/>
<path d="M81.5572 21.4488H75.721L69.6551 14.0155V21.4488H64.8716V5.57324H69.6551V12.6745L75.4004 5.57324H80.5954L74.6906 13.0065L81.5572 21.4488Z" fill="#333333"/>
<path d="M98.8013 21.4488H92.965L86.8991 14.0155V21.4488H82.1156V5.57324H86.8991V12.6745L92.6444 5.57324H97.8395L91.9346 13.0065L98.8013 21.4488Z" fill="#333333"/>
<path d="M104.636 21.4488H99.8523V5.57324H104.636V21.4488Z" fill="#333333"/>
<path d="M124.341 21.4488H120.084L111.855 12.6058V21.4488H107.118V5.57324H111.364L119.569 14.37V5.57324H124.341V21.4488Z" fill="#333333"/>
<path d="M140.223 5.51123H142.363V21.5129H140.063V9.06185L135.147 15.2467H134.725L129.753 9.06185V21.5129H127.464V5.51123H129.63L134.942 12.0824L140.223 5.51123Z" fill="#A6826C"/>
<path d="M150.326 5.41846H151.933L159.101 21.5112H156.758L154.627 16.7696H147.807L145.81 21.5112H143.457L150.324 5.41846H150.326ZM153.688 14.7308L151.109 8.93555L148.716 14.7308H153.688Z" fill="#A6826C"/>
<path d="M157.5 5.4873H170.855V7.52603H165.282V21.5114H162.982V7.52603H157.5V5.4873Z" fill="#A6826C"/>
<path d="M185.74 17.801V20.3203C184.062 21.2366 182.124 21.6948 179.926 21.6948C178.141 21.6948 176.626 21.3356 175.384 20.6188C174.139 19.902 173.155 18.9121 172.431 17.6525C171.707 16.3929 171.343 15.0295 171.343 13.5639C171.343 11.2346 172.173 9.27567 173.832 7.68715C175.49 6.09864 177.537 5.30518 179.971 5.30518C181.649 5.30518 183.515 5.74421 185.566 6.62229V9.08569C183.697 8.01603 181.871 7.4828 180.084 7.4828C178.298 7.4828 176.733 8.06073 175.524 9.2182C174.315 10.3757 173.71 11.8237 173.71 13.5655C173.71 15.3072 174.305 16.7648 175.495 17.8952C176.685 19.0255 178.207 19.5907 180.062 19.5907C181.917 19.5907 183.892 18.9952 185.739 17.8042L185.74 17.801Z" fill="#A6826C"/>
<path d="M199.711 5.51123H202V21.5129H199.711V14.549H190.728V21.5129H188.439V5.51123H190.728V12.4289H199.711V5.51123Z" fill="#A6826C"/>
</g>
<defs>
<linearGradient id="paint0_linear_406_1011" x1="9.76002" y1="0" x2="9.76002" y2="25.5759" gradientUnits="userSpaceOnUse">
<stop stop-color="white"/>
<stop offset="1" stop-color="#333333"/>
</linearGradient>
<linearGradient id="paint1_linear_406_1011" x1="9.76002" y1="0" x2="9.76002" y2="25.5759" gradientUnits="userSpaceOnUse">
<stop stop-color="white"/>
<stop offset="1" stop-color="white" stop-opacity="0"/>
</linearGradient>
<linearGradient id="paint2_linear_406_1011" x1="17.2136" y1="27.0002" x2="17.2136" y2="1.42432" gradientUnits="userSpaceOnUse">
<stop stop-color="white"/>
<stop offset="1" stop-color="#333333"/>
</linearGradient>
<linearGradient id="paint3_linear_406_1011" x1="17.2136" y1="27.0002" x2="17.2136" y2="1.42432" gradientUnits="userSpaceOnUse">
<stop stop-color="white"/>
<stop offset="1" stop-color="white" stop-opacity="0"/>
</linearGradient>
<linearGradient id="paint4_linear_406_1011" x1="5.15198" y1="7.46228" x2="19.5216" y2="7.46228" gradientUnits="userSpaceOnUse">
<stop stop-color="white"/>
<stop offset="1" stop-color="#333333"/>
</linearGradient>
<linearGradient id="paint5_linear_406_1011" x1="21.8233" y1="19.538" x2="7.45361" y2="19.538" gradientUnits="userSpaceOnUse">
<stop stop-color="white"/>
<stop offset="1" stop-color="#333333"/>
</linearGradient>
<clipPath id="clip0_406_1011">
<rect width="202" height="27" fill="white"/>
</clipPath>
</defs>
</svg>
