<svg width="11" height="21" viewBox="0 0 11 21" fill="none" xmlns="http://www.w3.org/2000/svg">
<path d="M9.52448 0.909687C9.86317 0.909062 10.1914 1.02033 10.4522 1.22419C10.599 1.33898 10.7203 1.47996 10.8092 1.63905C10.8981 1.79815 10.9529 1.97223 10.9704 2.15132C10.9879 2.33042 10.9678 2.51102 10.9112 2.68277C10.8546 2.85452 10.7627 3.01405 10.6406 3.15222L4.14675 10.4815L10.4087 17.8244C10.5291 17.9643 10.619 18.1252 10.6733 18.298C10.7275 18.4707 10.7451 18.6519 10.7249 18.8311C10.7047 19.0102 10.6471 19.1839 10.5555 19.342C10.464 19.5001 10.3402 19.6396 10.1913 19.7525C10.0413 19.8769 9.86566 19.9708 9.67539 20.0282C9.48512 20.0857 9.28433 20.1054 9.08561 20.0861C8.88689 20.0668 8.69453 20.009 8.52062 19.9163C8.3467 19.8236 8.19497 19.698 8.07496 19.5473L1.07375 11.3429C0.860556 11.0983 0.744005 10.7914 0.744005 10.4746C0.744005 10.1579 0.860556 9.85102 1.07375 9.60635L8.32138 1.40195C8.46679 1.23647 8.65151 1.10566 8.86054 1.02013C9.06958 0.934603 9.29705 0.896763 9.52448 0.909687Z" fill="white"/>
</svg>
