<svg width="11" height="21" viewBox="0 0 11 21" fill="none" xmlns="http://www.w3.org/2000/svg">
<path d="M1.47552 20.0903C1.13683 20.0909 0.808608 19.9797 0.547821 19.7758C0.401044 19.661 0.279716 19.52 0.190785 19.3609C0.101854 19.2019 0.0470669 19.0278 0.0295626 18.8487C0.0120583 18.6696 0.0321806 18.489 0.0887765 18.3172C0.145372 18.1455 0.237329 17.986 0.359382 17.8478L6.85325 10.5185L0.591305 3.17558C0.470898 3.03571 0.380982 2.87477 0.326723 2.70202C0.272465 2.52926 0.254935 2.34809 0.27514 2.16892C0.295345 1.98976 0.352887 1.81612 0.444459 1.658C0.536031 1.49988 0.659827 1.36039 0.808732 1.24755C0.958709 1.12306 1.13434 1.02917 1.32461 0.97175C1.51488 0.914334 1.71567 0.894639 1.91439 0.913898C2.11311 0.933158 2.30547 0.990958 2.47938 1.08367C2.6533 1.17638 2.80503 1.302 2.92504 1.45265L9.92625 9.65705C10.1394 9.90172 10.256 10.2086 10.256 10.5254C10.256 10.8421 10.1394 11.149 9.92625 11.3937L2.67862 19.598C2.53321 19.7635 2.34849 19.8943 2.13946 19.9799C1.93042 20.0654 1.70296 20.1032 1.47552 20.0903Z" fill="white"/>
</svg>
