<svg width="5" height="10" viewBox="0 0 5 10" fill="none" xmlns="http://www.w3.org/2000/svg">
<path d="M4.29046 0.00128943C4.45596 0.000964212 4.61634 0.05896 4.74377 0.165212C4.81549 0.225042 4.87477 0.298524 4.91823 0.381445C4.96168 0.464366 4.98845 0.555098 4.99701 0.648445C5.00556 0.741794 4.99573 0.835922 4.96807 0.92544C4.94042 1.01496 4.89549 1.09811 4.83585 1.17013L1.6627 4.99023L4.72252 8.81745C4.78135 8.89035 4.82529 8.97424 4.8518 9.06428C4.87832 9.15432 4.88688 9.24875 4.87701 9.34213C4.86714 9.43552 4.83902 9.52602 4.79427 9.60843C4.74953 9.69085 4.68904 9.76355 4.61628 9.82237C4.54299 9.88725 4.45717 9.93619 4.3642 9.96611C4.27123 9.99604 4.17311 10.0063 4.07601 9.99627C3.97891 9.98623 3.88492 9.9561 3.79993 9.90778C3.71495 9.85946 3.64081 9.79398 3.58217 9.71546L0.161128 5.43923C0.0569511 5.3117 5.29826e-07 5.15174 5.15394e-07 4.98666C5.00963e-07 4.82158 0.0569511 4.66162 0.161128 4.53409L3.70258 0.257864C3.77363 0.171614 3.86389 0.103434 3.96604 0.0588551C4.06818 0.0142766 4.17933 -0.00544636 4.29046 0.00128943Z" fill="#333333"/>
</svg>
