<svg width="19" height="19" viewBox="0 0 19 19" fill="none" xmlns="http://www.w3.org/2000/svg">
<path d="M14.25 8.70801C15.4296 8.70801 16.5221 9.08009 17.4167 9.70551V6.33301C17.4167 5.45426 16.7121 4.74967 15.8334 4.74967H12.6667V3.16634C12.6667 2.28759 11.9621 1.58301 11.0834 1.58301H7.91671C7.03796 1.58301 6.33337 2.28759 6.33337 3.16634V4.74967H3.16671C2.28796 4.74967 1.59129 5.45426 1.59129 6.33301L1.58337 15.0413C1.58337 15.9201 2.28796 16.6247 3.16671 16.6247H9.24671C8.84505 15.7804 8.6637 14.8481 8.71957 13.9148C8.77544 12.9815 9.0667 12.0776 9.5662 11.2872C10.0657 10.4969 10.7572 9.84583 11.5762 9.39484C12.3952 8.94385 13.3151 8.70756 14.25 8.70801ZM7.91671 3.16634H11.0834V4.74967H7.91671V3.16634Z" fill="#353547"/>
<path d="M14.25 10.292C12.065 10.292 10.2916 12.0653 10.2916 14.2503C10.2916 16.4353 12.065 18.2087 14.25 18.2087C16.435 18.2087 18.2083 16.4353 18.2083 14.2503C18.2083 12.0653 16.435 10.292 14.25 10.292ZM15.5562 16.1107L13.8541 14.4087V11.8753H14.6458V14.0841L16.1104 15.5487L15.5562 16.1107Z" fill="#353547"/>
</svg>
