<svg width="23" height="18" viewBox="0 0 23 18" fill="none" xmlns="http://www.w3.org/2000/svg">
<g clip-path="url(#clip0_1615_7672)">
<path d="M17.5293 7.86406C14.7686 7.86406 12.5343 10.075 12.5343 12.807C12.5343 15.5391 14.7686 17.75 17.5293 17.75C20.2901 17.75 22.5243 15.5391 22.5243 12.807C22.5243 10.075 20.2901 7.86406 17.5293 7.86406ZM19.7493 13.0229C19.7493 13.2062 19.5978 13.3562 19.4125 13.3562H17.3115C17.1263 13.3562 16.9747 13.2062 16.9747 13.0229V10.3946C16.9747 10.2113 17.1263 10.0613 17.3115 10.0613H17.7475C17.9328 10.0613 18.0843 10.2113 18.0843 10.3946V12.2578H19.4125C19.5978 12.2578 19.7493 12.4078 19.7493 12.5911V13.0229ZM17.5293 6.76562C17.7167 6.76562 17.9012 6.77695 18.0843 6.79343V5.11797C18.0843 4.23922 17.3073 3.47031 16.4193 3.47031H13.6443V1.82266C13.6443 0.943906 12.8673 0.174999 11.9793 0.174999H6.42934C5.54134 0.174999 4.76434 0.943906 4.76434 1.82266V3.47031H1.98934C1.10134 3.47031 0.324341 4.23922 0.324341 5.11797V7.86406H14.0301C15.0221 7.17445 16.2275 6.76562 17.5293 6.76562ZM11.4243 3.47031H6.98434V2.37187H11.4243V3.47031ZM11.6609 11.1594H7.53934C7.2327 11.1594 6.98434 10.9136 6.98434 10.6102V8.9625H0.324341V13.9055C0.324341 14.7842 1.10134 15.5531 1.98934 15.5531H12.0983C11.6706 14.7279 11.4243 13.7963 11.4243 12.807C11.4243 12.2352 11.5104 11.6839 11.6609 11.1594Z" fill="#A6826C"/>
</g>
<defs>
<clipPath id="clip0_1615_7672">
<rect width="22.2" height="17.575" fill="white" transform="translate(0.324341 0.174999)"/>
</clipPath>
</defs>
</svg>
