<svg width="15" height="15" viewBox="0 0 15 15" fill="none" xmlns="http://www.w3.org/2000/svg">
<g clip-path="url(#clip0_571_7059)">
<path d="M13.4373 2.50005H11.7706V3.75005C11.7706 3.87043 11.7469 3.98963 11.7008 4.10084C11.6548 4.21206 11.5872 4.31311 11.5021 4.39823C11.417 4.48335 11.316 4.55087 11.2047 4.59694C11.0935 4.643 10.9743 4.66671 10.8539 4.66671C10.7336 4.66671 10.6144 4.643 10.5032 4.59694C10.3919 4.55087 10.2909 4.48335 10.2058 4.39823C10.1206 4.31311 10.0531 4.21206 10.0071 4.10084C9.96099 3.98963 9.93728 3.87043 9.93728 3.75005V2.50005H5.08312V3.75005C5.08312 3.99316 4.98654 4.22632 4.81463 4.39823C4.64272 4.57014 4.40956 4.66671 4.16645 4.66671C3.92333 4.66671 3.69018 4.57014 3.51827 4.39823C3.34636 4.22632 3.24978 3.99316 3.24978 3.75005V2.50005H1.58311C1.48396 2.49892 1.38558 2.51769 1.2938 2.55524C1.20203 2.59279 1.11871 2.64837 1.04879 2.71868C0.978863 2.789 0.923748 2.87262 0.886704 2.9646C0.849659 3.05659 0.831437 3.15507 0.833115 3.25421V12.5792C0.831459 12.6766 0.849008 12.7734 0.884759 12.864C0.92051 12.9546 0.973762 13.0373 1.04147 13.1073C1.10919 13.1774 1.19003 13.2334 1.27939 13.2722C1.36875 13.311 1.46488 13.3318 1.56228 13.3334H13.4373C13.5347 13.3318 13.6308 13.311 13.7202 13.2722C13.8095 13.2334 13.8904 13.1774 13.9581 13.1073C14.0258 13.0373 14.0791 12.9546 14.1148 12.864C14.1506 12.7734 14.1681 12.6766 14.1664 12.5792V3.25421C14.1681 3.15681 14.1506 3.06004 14.1148 2.96942C14.0791 2.87881 14.0258 2.79612 13.9581 2.72609C13.8904 2.65605 13.8095 2.60004 13.7202 2.56126C13.6308 2.52248 13.5347 2.50168 13.4373 2.50005ZM4.16645 10.8334H3.33311V10H4.16645V10.8334ZM4.16645 8.75005H3.33311V7.91671H4.16645V8.75005ZM4.16645 6.66671H3.33311V5.83338H4.16645V6.66671ZM6.66645 10.8334H5.83312V10H6.66645V10.8334ZM6.66645 8.75005H5.83312V7.91671H6.66645V8.75005ZM6.66645 6.66671H5.83312V5.83338H6.66645V6.66671ZM9.16645 10.8334H8.33312V10H9.16645V10.8334ZM9.16645 8.75005H8.33312V7.91671H9.16645V8.75005ZM9.16645 6.66671H8.33312V5.83338H9.16645V6.66671ZM11.6664 10.8334H10.8331V10H11.6664V10.8334ZM11.6664 8.75005H10.8331V7.91671H11.6664V8.75005ZM11.6664 6.66671H10.8331V5.83338H11.6664V6.66671Z" fill="#353547"/>
<path d="M4.16667 4.16683C4.27717 4.16683 4.38315 4.12293 4.46129 4.04479C4.53943 3.96665 4.58333 3.86067 4.58333 3.75016V1.25016C4.58333 1.13966 4.53943 1.03368 4.46129 0.955535C4.38315 0.877395 4.27717 0.833496 4.16667 0.833496C4.05616 0.833496 3.95018 0.877395 3.87204 0.955535C3.7939 1.03368 3.75 1.13966 3.75 1.25016V3.75016C3.75 3.86067 3.7939 3.96665 3.87204 4.04479C3.95018 4.12293 4.05616 4.16683 4.16667 4.16683Z" fill="#353547"/>
<path d="M10.8332 4.16683C10.9437 4.16683 11.0497 4.12293 11.1278 4.04479C11.2059 3.96665 11.2498 3.86067 11.2498 3.75016V1.25016C11.2498 1.13966 11.2059 1.03368 11.1278 0.955535C11.0497 0.877395 10.9437 0.833496 10.8332 0.833496C10.7227 0.833496 10.6167 0.877395 10.5385 0.955535C10.4604 1.03368 10.4165 1.13966 10.4165 1.25016V3.75016C10.4165 3.86067 10.4604 3.96665 10.5385 4.04479C10.6167 4.12293 10.7227 4.16683 10.8332 4.16683Z" fill="#353547"/>
</g>
<defs>
<clipPath id="clip0_571_7059">
<rect width="15" height="15" fill="white"/>
</clipPath>
</defs>
</svg>
