<svg width="18" height="18" viewBox="0 0 18 18" fill="none" xmlns="http://www.w3.org/2000/svg">
<path fill-rule="evenodd" clip-rule="evenodd" d="M15 2.25H3C2.175 2.25 1.5 2.925 1.5 3.75V14.25C1.5 15.075 2.175 15.75 3 15.75H15C15.825 15.75 16.5 15.075 16.5 14.25V3.75C16.5 2.925 15.825 2.25 15 2.25ZM7.5 12.75H3.75V11.25H7.5V12.75ZM7.5 9.75H3.75V8.25H7.5V9.75ZM7.5 6.75H3.75V5.25H7.5V6.75ZM11.115 11.25L9 9.12L10.0575 8.0625L11.115 9.1275L13.4925 6.75L14.5575 7.815L11.115 11.25Z" fill="#353547"/>
</svg>
