<svg width="14" height="12" viewBox="0 0 14 12" fill="none" xmlns="http://www.w3.org/2000/svg">
<path d="M4.33337 12V10.6667H5.66671V9.33333H1.66671C1.30004 9.33333 0.986263 9.20289 0.725374 8.942C0.464041 8.68067 0.333374 8.36667 0.333374 8V1.33333C0.333374 0.966667 0.464041 0.652667 0.725374 0.391333C0.986263 0.130444 1.30004 0 1.66671 0H12.3334C12.7 0 13.014 0.130444 13.2754 0.391333C13.5363 0.652667 13.6667 0.966667 13.6667 1.33333V8C13.6667 8.36667 13.5363 8.68067 13.2754 8.942C13.014 9.20289 12.7 9.33333 12.3334 9.33333H8.33337V10.6667H9.66671V12H4.33337Z" fill="#353547"/>
</svg>
