<svg width="17" height="12" viewBox="0 0 17 12" fill="none" xmlns="http://www.w3.org/2000/svg">
<path d="M8.59031 1.32969L6.01906 3.47344C5.59141 3.82891 5.50906 4.46875 5.83313 4.92539C6.17578 5.41211 6.8425 5.50781 7.30203 5.13867L9.93969 3.02773C10.1256 2.88008 10.3913 2.91289 10.5373 3.1043C10.6834 3.2957 10.6489 3.56914 10.463 3.71953L9.90781 4.1625L13.6 7.6625V2.5H13.5814L13.4778 2.43164L11.5494 1.16016C11.143 0.892187 10.6675 0.75 10.1841 0.75C9.605 0.75 9.04187 0.955078 8.59031 1.32969ZM9.19594 4.73125L7.82266 5.83047C6.98594 6.50313 5.77203 6.32812 5.14516 5.44219C4.55547 4.6082 4.70422 3.44336 5.4825 2.79531L7.6925 0.955078C7.38438 0.821094 7.05234 0.752734 6.715 0.752734C6.21563 0.75 5.72953 0.903125 5.3125 1.1875L3.4 2.5V8.625H4.14906L6.57688 10.9055C7.0975 11.3949 7.90234 11.3566 8.37781 10.8207C8.52391 10.6539 8.62219 10.4598 8.67266 10.2574L9.12422 10.684C9.64219 11.1734 10.4497 11.1379 10.9252 10.6047C11.0447 10.4707 11.1323 10.3148 11.1881 10.1535C11.7034 10.509 12.4047 10.4352 12.8377 9.94844C13.3131 9.41523 13.2786 8.58398 12.7606 8.09453L9.19594 4.73125ZM2.55 2.5H0V8.625C0 9.10898 0.379844 9.5 0.85 9.5H1.7C2.17016 9.5 2.55 9.10898 2.55 8.625V2.5ZM1.275 8.625C1.04125 8.625 0.85 8.42812 0.85 8.1875C0.85 7.94688 1.04125 7.75 1.275 7.75C1.50875 7.75 1.7 7.94688 1.7 8.1875C1.7 8.42812 1.50875 8.625 1.275 8.625ZM14.45 2.5V8.625C14.45 9.10898 14.8298 9.5 15.3 9.5H16.15C16.6202 9.5 17 9.10898 17 8.625V2.5H14.45ZM16.15 8.1875C16.15 8.42812 15.9588 8.625 15.725 8.625C15.4913 8.625 15.3 8.42812 15.3 8.1875C15.3 7.94688 15.4913 7.75 15.725 7.75C15.9588 7.75 16.15 7.94688 16.15 8.1875Z" fill="#353547"/>
</svg>
