<svg width="20" height="20" viewBox="0 0 20 20" fill="none" xmlns="http://www.w3.org/2000/svg">
<path d="M8.5 2C8.18967 1.99984 7.88694 2.09593 7.63351 2.27503C7.38008 2.45413 7.18844 2.70742 7.085 3H5.5C5.10217 3 4.72064 3.15804 4.43934 3.43934C4.15803 3.72064 4 4.10218 4 4.5V8.256C4.83937 7.95889 5.74801 7.91746 6.61093 8.13697C7.47385 8.35648 8.25226 8.82704 8.84763 9.48912C9.44301 10.1512 9.82859 10.975 9.95557 11.8563C10.0826 12.7376 9.94524 13.6368 9.561 14.44L11.561 16.44C11.7612 16.6401 11.9007 16.8928 11.9633 17.1689C12.0259 17.4449 12.0092 17.7331 11.915 18H14.5C14.8978 18 15.2794 17.842 15.5607 17.5607C15.842 17.2794 16 16.8978 16 16.5V4.5C16 4.10218 15.842 3.72064 15.5607 3.43934C15.2794 3.15804 14.8978 3 14.5 3H12.915C12.8116 2.70742 12.6199 2.45413 12.3665 2.27503C12.1131 2.09593 11.8103 1.99984 11.5 2H8.5ZM11.5 3C11.6326 3 11.7598 3.05268 11.8536 3.14645C11.9473 3.24022 12 3.36739 12 3.5C12 3.63261 11.9473 3.75979 11.8536 3.85355C11.7598 3.94732 11.6326 4 11.5 4H8.5C8.36739 4 8.24021 3.94732 8.14645 3.85355C8.05268 3.75979 8 3.63261 8 3.5C8 3.36739 8.05268 3.24022 8.14645 3.14645C8.24021 3.05268 8.36739 3 8.5 3H11.5ZM8.303 14.596C8.83291 13.8873 9.07474 13.0043 8.9798 12.1245C8.88486 11.2447 8.46022 10.4336 7.79132 9.85428C7.12242 9.27498 6.25893 8.97055 5.37462 9.00225C4.49031 9.03395 3.65083 9.39943 3.02513 10.0251C2.39943 10.6508 2.03395 11.4903 2.00225 12.3746C1.97055 13.2589 2.27498 14.1224 2.85428 14.7913C3.43357 15.4602 4.24473 15.8849 5.1245 15.9798C6.00426 16.0747 6.88734 15.8329 7.596 15.303L10.146 17.853C10.2398 17.9469 10.367 17.9997 10.4996 17.9998C10.6323 17.9999 10.7596 17.9473 10.8535 17.8535C10.9474 17.7597 11.0002 17.6325 11.0003 17.4999C11.0004 17.3672 10.9478 17.2399 10.854 17.146L8.304 14.596H8.303ZM5.5 15C4.83696 15 4.20107 14.7366 3.73223 14.2678C3.26339 13.7989 3 13.163 3 12.5C3 11.837 3.26339 11.2011 3.73223 10.7322C4.20107 10.2634 4.83696 10 5.5 10C6.16304 10 6.79893 10.2634 7.26777 10.7322C7.73661 11.2011 8 11.837 8 12.5C8 13.163 7.73661 13.7989 7.26777 14.2678C6.79893 14.7366 6.16304 15 5.5 15Z" fill="#353547"/>
</svg>
