<svg width="27" height="27" viewBox="0 0 27 27" fill="none" xmlns="http://www.w3.org/2000/svg">
<path d="M13.5 0.84375C11.4576 0.843291 9.47211 1.51653 7.8512 2.75913C6.2303 4.00172 5.06453 5.74428 4.53457 7.71672C4.00461 9.68916 4.14007 11.7813 4.91994 13.669C5.69981 15.5566 7.08054 17.1343 8.84814 18.1575C9.61989 18.6052 10.1025 19.2915 10.1239 19.9834C10.1298 20.1687 10.1966 20.3469 10.3139 20.4905C10.4312 20.634 10.5926 20.735 10.773 20.7776C11.169 20.871 11.5718 20.9441 11.9813 20.997C12.3446 21.0431 12.6563 20.7518 12.6563 20.385V15.1414C12.3008 15.1023 11.9485 15.038 11.6021 14.949C11.4948 14.9214 11.394 14.8729 11.3054 14.8063C11.2168 14.7397 11.1422 14.6563 11.0858 14.5609C11.0295 14.4654 10.9925 14.3598 10.9769 14.2501C10.9614 14.1404 10.9676 14.0286 10.9952 13.9213C11.0228 13.814 11.0713 13.7131 11.1379 13.6246C11.2045 13.536 11.2879 13.4614 11.3833 13.405C11.4788 13.3486 11.5844 13.3116 11.6941 13.2961C11.8038 13.2805 11.9156 13.2867 12.0229 13.3144C12.9918 13.5641 14.0082 13.5641 14.9771 13.3144C15.0856 13.2831 15.1991 13.274 15.3111 13.2874C15.4232 13.3008 15.5314 13.3366 15.6293 13.3925C15.7273 13.4485 15.813 13.5235 15.8815 13.6132C15.9499 13.7029 15.9997 13.8054 16.0278 13.9147C16.056 14.0239 16.0619 14.1377 16.0453 14.2493C16.0287 14.3609 15.9899 14.468 15.9312 14.5644C15.8724 14.6607 15.795 14.7443 15.7034 14.8101C15.6118 14.876 15.5079 14.9229 15.3979 14.9479C15.0515 15.0373 14.6993 15.1019 14.3438 15.1414V20.3839C14.3424 20.4701 14.3595 20.5557 14.3938 20.6348C14.4281 20.714 14.4789 20.7849 14.5427 20.843C14.6066 20.901 14.6821 20.9447 14.7642 20.9713C14.8462 20.9978 14.933 21.0066 15.0188 20.997C15.425 20.9447 15.8283 20.8715 16.227 20.7776C16.4074 20.735 16.5688 20.634 16.6861 20.4905C16.8035 20.3469 16.8702 20.1687 16.8761 19.9834C16.8986 19.2915 17.3801 18.6052 18.1519 18.1575C19.9195 17.1343 21.3002 15.5566 22.0801 13.669C22.86 11.7813 22.9954 9.68916 22.4655 7.71672C21.9355 5.74428 20.7697 4.00172 19.1488 2.75913C17.5279 1.51653 15.5424 0.843291 13.5 0.84375Z" fill="#353547"/>
<path fill-rule="evenodd" clip-rule="evenodd" d="M10.1397 22.3867C10.1603 22.2778 10.2022 22.174 10.263 22.0813C10.3238 21.9886 10.4022 21.9088 10.4938 21.8464C10.5854 21.7841 10.6885 21.7404 10.797 21.7178C10.9055 21.6953 11.0174 21.6943 11.1263 21.715C12.6948 22.0126 14.3053 22.0126 15.8738 21.715C15.984 21.6908 16.098 21.6889 16.2089 21.7094C16.3199 21.73 16.4256 21.7726 16.5198 21.8347C16.614 21.8969 16.6948 21.9773 16.7573 22.0712C16.8199 22.1651 16.863 22.2706 16.8841 22.3815C16.9052 22.4924 16.9038 22.6063 16.88 22.7167C16.8563 22.827 16.8106 22.9314 16.7458 23.0238C16.681 23.1162 16.5983 23.1946 16.5026 23.2544C16.4069 23.3143 16.3002 23.3543 16.1888 23.3722C14.4121 23.7093 12.5879 23.7093 10.8113 23.3722C10.5916 23.3304 10.3975 23.2032 10.2715 23.0184C10.1456 22.8336 10.0982 22.6064 10.1397 22.3867ZM10.9733 25.1362C10.9848 25.026 11.0179 24.9191 11.0707 24.8217C11.1235 24.7243 11.195 24.6382 11.2811 24.5684C11.3672 24.4986 11.4662 24.4465 11.5724 24.415C11.6787 24.3834 11.7901 24.3731 11.9003 24.3847C12.9639 24.4958 14.0362 24.4958 15.0998 24.3847C15.21 24.3731 15.3214 24.3834 15.4276 24.415C15.5339 24.4465 15.6328 24.4986 15.7189 24.5684C15.805 24.6382 15.8765 24.7243 15.9293 24.8217C15.9821 24.9191 16.0153 25.026 16.0268 25.1362C16.0383 25.2464 16.028 25.3578 15.9965 25.464C15.965 25.5702 15.9128 25.6692 15.843 25.7553C15.7732 25.8414 15.6872 25.9129 15.5898 25.9657C15.4924 26.0185 15.3855 26.0516 15.2753 26.0632C14.095 26.1867 12.9051 26.1867 11.7248 26.0632C11.6146 26.0517 11.5077 26.0185 11.4103 25.9657C11.3129 25.9129 11.2268 25.8414 11.157 25.7553C11.0872 25.6692 11.0351 25.5703 11.0036 25.464C10.972 25.3578 10.9618 25.2464 10.9733 25.1362Z" fill="#353547"/>
</svg>
