<svg width="60" height="60" viewBox="0 0 60 60" fill="none" xmlns="http://www.w3.org/2000/svg">
<path d="M45 20H50C50.663 20 51.2989 20.2634 51.7678 20.7322C52.2366 21.2011 52.5 21.837 52.5 22.5V52.5C52.5 53.163 52.2366 53.7989 51.7678 54.2678C51.2989 54.7366 50.663 55 50 55H10C9.33696 55 8.70107 54.7366 8.23223 54.2678C7.76339 53.7989 7.5 53.163 7.5 52.5V22.5C7.5 21.837 7.76339 21.2011 8.23223 20.7322C8.70107 20.2634 9.33696 20 10 20H15V17.5C15 13.5218 16.5804 9.70644 19.3934 6.8934C22.2064 4.08035 26.0218 2.5 30 2.5C33.9782 2.5 37.7936 4.08035 40.6066 6.8934C43.4197 9.70644 45 13.5218 45 17.5V20ZM40 20V17.5C40 14.8478 38.9464 12.3043 37.0711 10.4289C35.1957 8.55357 32.6522 7.5 30 7.5C27.3478 7.5 24.8043 8.55357 22.9289 10.4289C21.0536 12.3043 20 14.8478 20 17.5V20H40ZM27.5 35V40H32.5V35H27.5ZM17.5 35V40H22.5V35H17.5ZM37.5 35V40H42.5V35H37.5Z" fill="#353547"/>
</svg>
