<svg width="16" height="16" viewBox="0 0 16 16" fill="none" xmlns="http://www.w3.org/2000/svg">
<path d="M3.33341 14.6666C3.1566 14.6666 2.98703 14.5964 2.86201 14.4714C2.73699 14.3464 2.66675 14.1768 2.66675 14V1.99998C2.66675 1.82317 2.73699 1.6536 2.86201 1.52858C2.98703 1.40355 3.1566 1.33331 3.33341 1.33331H12.6667C12.8436 1.33331 13.0131 1.40355 13.1382 1.52858C13.2632 1.6536 13.3334 1.82317 13.3334 1.99998V14C13.3334 14.1768 13.2632 14.3464 13.1382 14.4714C13.0131 14.5964 12.8436 14.6666 12.6667 14.6666H3.33341ZM10.0001 10.6666L13.3334 7.99998L10.0001 5.33331V7.33331H6.00008V8.66665H10.0001V10.6666Z" fill="#353547"/>
</svg>
