<svg width="15" height="15" viewBox="0 0 15 15" fill="none" xmlns="http://www.w3.org/2000/svg">
<g clip-path="url(#clip0_434_8039)">
<path d="M1.75833 9.66659L0.966665 13.0833C0.939355 13.2082 0.940291 13.3376 0.969405 13.4621C0.998519 13.5866 1.05507 13.703 1.13494 13.8028C1.21481 13.9026 1.31597 13.9834 1.43103 14.0391C1.54609 14.0948 1.67215 14.1241 1.8 14.1249C1.85957 14.1309 1.91959 14.1309 1.97917 14.1249L5.41666 13.3333L12.0167 6.75825L8.33333 3.08325L1.75833 9.66659Z" fill="white"/>
<path d="M14.0917 3.46674L11.6333 1.0084C11.4717 0.847596 11.253 0.757324 11.025 0.757324C10.797 0.757324 10.5783 0.847596 10.4167 1.0084L9.05 2.37507L12.7292 6.05424L14.0958 4.68757C14.1758 4.60719 14.2392 4.51182 14.2822 4.40693C14.3253 4.30204 14.3473 4.18968 14.3469 4.07629C14.3465 3.9629 14.3238 3.85069 14.28 3.7461C14.2362 3.6415 14.1722 3.54657 14.0917 3.46674V3.46674Z" fill="white"/>
</g>
<defs>
<clipPath id="clip0_434_8039">
<rect width="15" height="15" fill="white"/>
</clipPath>
</defs>
</svg>
