<svg width="72" height="72" viewBox="0 0 72 72" fill="none" xmlns="http://www.w3.org/2000/svg">
<path fill-rule="evenodd" clip-rule="evenodd" d="M58.5 19.5C57.3065 19.5 56.1619 19.9741 55.318 20.818C54.4741 21.6619 54 22.8065 54 24V27H63V24C63 22.8065 62.5259 21.6619 61.682 20.818C60.8381 19.9741 59.6935 19.5 58.5 19.5ZM63 30H54V54.75L58.5 61.5L63 54.75V30ZM9 13.5V58.5C9 59.6935 9.47411 60.8381 10.318 61.682C11.1619 62.5259 12.3065 63 13.5 63H46.5C47.6935 63 48.8381 62.5259 49.682 61.682C50.5259 60.8381 51 59.6935 51 58.5V13.5C51 12.3065 50.5259 11.1619 49.682 10.318C48.8381 9.47411 47.6935 9 46.5 9H13.5C12.3065 9 11.1619 9.47411 10.318 10.318C9.47411 11.1619 9 12.3065 9 13.5ZM30 22.5C30 22.1022 30.158 21.7206 30.4393 21.4393C30.7206 21.158 31.1022 21 31.5 21H43.5C43.8978 21 44.2794 21.158 44.5607 21.4393C44.842 21.7206 45 22.1022 45 22.5C45 22.8978 44.842 23.2794 44.5607 23.5607C44.2794 23.842 43.8978 24 43.5 24H31.5C31.1022 24 30.7206 23.842 30.4393 23.5607C30.158 23.2794 30 22.8978 30 22.5ZM31.5 27C31.1022 27 30.7206 27.158 30.4393 27.4393C30.158 27.7206 30 28.1022 30 28.5C30 28.8978 30.158 29.2794 30.4393 29.5607C30.7206 29.842 31.1022 30 31.5 30H43.5C43.8978 30 44.2794 29.842 44.5607 29.5607C44.842 29.2794 45 28.8978 45 28.5C45 28.1022 44.842 27.7206 44.5607 27.4393C44.2794 27.158 43.8978 27 43.5 27H31.5ZM30 42C30 41.6022 30.158 41.2206 30.4393 40.9393C30.7206 40.658 31.1022 40.5 31.5 40.5H43.5C43.8978 40.5 44.2794 40.658 44.5607 40.9393C44.842 41.2206 45 41.6022 45 42C45 42.3978 44.842 42.7794 44.5607 43.0607C44.2794 43.342 43.8978 43.5 43.5 43.5H31.5C31.1022 43.5 30.7206 43.342 30.4393 43.0607C30.158 42.7794 30 42.3978 30 42ZM31.5 46.5C31.1022 46.5 30.7206 46.658 30.4393 46.9393C30.158 47.2206 30 47.6022 30 48C30 48.3978 30.158 48.7794 30.4393 49.0607C30.7206 49.342 31.1022 49.5 31.5 49.5H43.5C43.8978 49.5 44.2794 49.342 44.5607 49.0607C44.842 48.7794 45 48.3978 45 48C45 47.6022 44.842 47.2206 44.5607 46.9393C44.2794 46.658 43.8978 46.5 43.5 46.5H31.5ZM18 42V46.5H22.5V42H18ZM16.5 39H24C24.3978 39 24.7794 39.158 25.0607 39.4393C25.342 39.7206 25.5 40.1022 25.5 40.5V48C25.5 48.3978 25.342 48.7794 25.0607 49.0607C24.7794 49.342 24.3978 49.5 24 49.5H16.5C16.1022 49.5 15.7206 49.342 15.4393 49.0607C15.158 48.7794 15 48.3978 15 48V40.5C15 40.1022 15.158 39.7206 15.4393 39.4393C15.7206 39.158 16.1022 39 16.5 39ZM26.5605 23.5605C26.8337 23.2776 26.9849 22.8987 26.9815 22.5054C26.9781 22.1121 26.8203 21.7359 26.5422 21.4578C26.2641 21.1797 25.8879 21.0219 25.4946 21.0185C25.1013 21.0151 24.7224 21.1663 24.4395 21.4395L19.5 26.379L17.5605 24.4395C17.2776 24.1663 16.8987 24.0151 16.5054 24.0185C16.1121 24.0219 15.7359 24.1797 15.4578 24.4578C15.1797 24.7359 15.0219 25.1121 15.0185 25.5054C15.0151 25.8987 15.1663 26.2776 15.4395 26.5605L19.5 30.621L26.5605 23.5605Z" fill="#353547"/>
</svg>
