<svg width="16" height="20" viewBox="0 0 16 20" fill="none" xmlns="http://www.w3.org/2000/svg">
<path d="M9.604 0.833008H6.39567C5.88835 0.833023 5.39884 1.02001 5.02071 1.35823C4.64258 1.69645 4.40237 2.16216 4.346 2.66634H2.729C2.18199 2.66634 1.65739 2.88364 1.2706 3.27043C0.883803 3.65723 0.666504 4.18183 0.666504 4.72884V17.1038C0.666504 17.6509 0.883803 18.1755 1.2706 18.5622C1.65739 18.949 2.18199 19.1663 2.729 19.1663H13.2707C13.5415 19.1663 13.8097 19.113 14.06 19.0093C14.3102 18.9057 14.5376 18.7538 14.7291 18.5622C14.9206 18.3707 15.0725 18.1434 15.1762 17.8931C15.2798 17.6429 15.3332 17.3747 15.3332 17.1038V4.72884C15.3332 4.45799 15.2798 4.18979 15.1762 3.93956C15.0725 3.68932 14.9206 3.46195 14.7291 3.27043C14.5376 3.07891 14.3102 2.92699 14.06 2.82334C13.8097 2.71969 13.5415 2.66634 13.2707 2.66634H11.6537C11.5973 2.16216 11.3571 1.69645 10.979 1.35823C10.6008 1.02001 10.1113 0.833023 9.604 0.833008V0.833008ZM6.39567 2.20801H9.604C9.78634 2.20801 9.96121 2.28044 10.0901 2.40937C10.2191 2.5383 10.2915 2.71317 10.2915 2.89551C10.2915 3.07784 10.2191 3.25271 10.0901 3.38164C9.96121 3.51058 9.78634 3.58301 9.604 3.58301H6.39567C6.21333 3.58301 6.03847 3.51058 5.90954 3.38164C5.7806 3.25271 5.70817 3.07784 5.70817 2.89551C5.70817 2.71317 5.7806 2.5383 5.90954 2.40937C6.03847 2.28044 6.21333 2.20801 6.39567 2.20801ZM12.6107 9.11051L7.569 14.1522C7.4401 14.2809 7.26536 14.3532 7.08317 14.3532C6.90098 14.3532 6.72624 14.2809 6.59734 14.1522L4.30567 11.8605C4.23812 11.7976 4.18395 11.7217 4.14637 11.6373C4.1088 11.553 4.08859 11.462 4.08696 11.3697C4.08533 11.2773 4.10231 11.1856 4.13689 11.1C4.17147 11.0144 4.22293 10.9367 4.28822 10.8714C4.3535 10.8061 4.43127 10.7546 4.51687 10.7201C4.60248 10.6855 4.69417 10.6685 4.78648 10.6701C4.87879 10.6718 4.96983 10.692 5.05416 10.7295C5.1385 10.7671 5.2144 10.8213 5.27734 10.8888L7.08317 12.6947L11.639 8.13884C11.7019 8.0713 11.7778 8.01712 11.8622 7.97954C11.9465 7.94197 12.0375 7.92176 12.1299 7.92013C12.2222 7.9185 12.3139 7.93548 12.3995 7.97006C12.4851 8.00464 12.5628 8.05611 12.6281 8.12139C12.6934 8.18667 12.7449 8.26444 12.7795 8.35004C12.814 8.43565 12.831 8.52734 12.8294 8.61965C12.8278 8.71196 12.8075 8.803 12.77 8.88733C12.7324 8.97167 12.6782 9.04757 12.6107 9.11051V9.11051Z" fill="#353547"/>
</svg>
